<svg width="200" height="23" viewBox="0 0 200 23" fill="none" xmlns="http://www.w3.org/2000/svg">
<mask id="mask0" mask-type="alpha" maskUnits="userSpaceOnUse" x="106" y="0" width="94" height="22">
<path fill-rule="evenodd" clip-rule="evenodd" d="M106.621 0H200V21.6811H106.621V0Z" fill="white"/>
</mask>
<g mask="url(#mask0)">
<path fill-rule="evenodd" clip-rule="evenodd" d="M132.125 19.7619C132.023 19.4686 131.478 19.6869 130.878 19.3492C130.079 18.9002 129.602 16.4439 129.602 14.4642C129.602 12.8496 129.541 5.89885 129.608 3.78736C129.675 1.67658 131.422 1.82132 131.422 1.60157C131.422 1.33429 131.412 0.69796 131.405 0.313413C131.402 0.138747 131.261 -0.000351482 131.089 6.67158e-07C130.887 0.000352816 130.604 0.00422645 130.282 0.0186646C129.651 0.0478929 124.602 0.0760648 123.884 0.112336C123.074 0.153538 122.651 1.12089 122.478 1.4829C122.306 1.84561 119.79 10.7324 119.79 10.7324L115.771 0.325738C115.723 0.200726 115.604 0.118675 115.472 0.118323L107.73 0.10635L107.16 0.105293C106.98 0.105293 106.835 0.2539 106.838 0.435609L106.865 2.38088C106.867 2.53266 106.972 2.66366 107.12 2.69429C107.348 2.74148 107.706 2.72669 108.209 2.97179C108.93 3.32253 109.927 4.08 109.927 5.33823C109.927 6.02668 110.146 12.1389 109.858 14.8533C109.594 17.3412 108.823 18.241 108.332 18.7019C107.94 19.0696 107.038 19.4781 106.728 19.5939C106.665 19.6172 106.624 19.6746 106.623 19.7418C106.619 19.994 106.622 20.5877 106.624 20.9018C106.625 21.0367 106.734 21.1434 106.867 21.1423C108.173 21.1328 114.385 21.0881 115.464 21.0881C115.691 21.0881 115.678 20.8419 115.678 20.8419C115.678 20.8419 115.672 20.0521 115.672 19.8552C115.672 19.7644 115.636 19.7394 115.488 19.7302C115.022 19.7006 113.678 19.739 112.786 18.7724C111.787 17.6902 111.488 15.1498 111.488 13.687C111.488 11.3959 111.5 4.80085 111.503 4.9484C111.505 5.08503 116.936 17.2162 117.686 18.8914C117.738 19.0079 117.853 19.0823 117.979 19.0823H118.701C118.845 19.0823 118.971 18.9879 119.01 18.8484C119.443 17.3204 122.135 8.15084 123.072 4.83677C123.295 4.04795 123.572 3.78279 123.572 3.78279C123.572 3.78279 123.794 13.3623 123.545 16.2612C123.294 19.1594 121.375 19.502 121.138 19.5474C121.033 19.5675 120.885 19.5587 120.885 19.6985V20.9134C120.885 21.0025 120.956 21.0754 121.044 21.0761C122.404 21.0899 131.804 21.1441 131.94 21.1441C132.31 21.1441 132.226 20.0545 132.125 19.7619ZM199.661 9.11137C199.416 9.10926 195.785 9.06665 195.785 9.06665C195.793 7.96512 195.813 5.56417 195.813 5.23597C195.813 5.07715 195.715 4.99264 195.381 4.99264C195.083 4.99264 194.99 5.0113 194.795 5.15216C194.66 5.25006 192.29 7.12173 191.074 7.79081C190.058 8.35038 188.842 8.84338 188.469 8.99023C188.395 9.01981 188.34 9.0839 188.322 9.16314C188.26 9.43711 188.181 10.0562 188.729 10.0562C189.713 10.0562 190.808 10.0587 190.801 11.0221C190.797 11.5271 190.638 18.0852 190.638 18.593C190.638 18.9469 190.759 19.4582 190.891 19.7237C191.365 20.6745 192.225 21.5158 194.159 21.6373C196.76 21.8007 198.956 20.8126 199.6 19.123C199.833 18.5102 199.874 17.3274 199.625 17.3404C199.477 17.3481 199.334 17.3682 199.242 17.3833C199.18 17.3939 199.134 17.4415 199.115 17.502C198.735 18.7071 195.785 19.285 195.785 16.7354V10.4101L199.713 10.4203C200.123 10.4235 200.084 9.11137 199.661 9.11137ZM180.504 15.199L184.647 13.271C184.671 13.2597 184.686 13.2364 184.685 13.21C184.674 12.9871 184.587 11.936 183.876 11.1045C183.075 10.1696 181.572 10.3728 180.927 11.4697C179.967 13.1016 180.504 15.199 180.504 15.199ZM189.574 17.5246C188.936 18.8075 187.406 21.5951 183.349 21.6546C180.058 21.7028 176.243 19.5259 176.184 15.4121C176.131 11.7634 179.394 8.65643 183.37 8.59762C187.347 8.53951 188.19 12.379 188.24 12.592C188.284 12.7836 188.388 13.091 188.209 13.1967C187.794 13.4432 187.007 13.8365 185.984 14.2697C184.961 14.7025 181.017 16.4136 181.017 16.4136C182.018 18.35 184.034 18.6251 185.655 18.3194C187.271 18.0137 188.741 16.2579 188.897 16.1354C189.008 16.0477 189.129 16.0963 189.179 16.1618C189.218 16.2139 189.482 16.9643 189.589 17.2721C189.618 17.3552 189.613 17.4461 189.574 17.5246ZM148.221 19.8851C148.218 21.1113 147.154 21.481 145.592 21.4057C143.851 21.3219 142.851 19.9809 142.533 18.972C142.129 19.6794 140.523 21.6874 136.548 21.6803C135.693 21.6789 134.401 21.5564 133.316 20.5665C132.744 20.0443 132.392 19.335 132.392 18.5466C132.392 17.5496 132.691 16.1224 134.338 15.5047C136.303 14.768 140.157 13.6788 141.845 13.2562C141.836 12.7974 142.37 10.488 140.073 10.0429C139.012 9.83687 137.87 10.3073 137.45 10.9637C136.632 12.241 137.012 13.1101 136.459 13.7933C136.013 14.3444 135.321 14.5321 134.581 14.5504C133.842 14.5691 132.765 14.0186 132.859 12.5502C132.935 11.3553 135.126 8.60893 139.416 8.60893C143.25 8.60893 146.14 10.0017 146.375 12.2523C146.582 14.2398 146.31 17.3243 146.311 18.0638C146.312 19.078 147.117 19.359 147.951 19.3491C148.223 19.346 148.221 19.4597 148.221 19.8851ZM140.708 17.6673C141.487 17.0239 141.967 16.1858 141.967 14.9462V14.6272C140.276 15.0779 137.408 16.364 137.004 17.2563C136.706 17.9138 136.985 18.5244 137.543 18.6649C138.063 18.7966 139.49 18.6719 140.708 17.6673ZM177.278 20.1752C176.698 19.9375 176.153 19.9625 175.251 17.795C174.602 16.2361 173.76 15.2916 173.041 14.5472C171.842 13.3055 170.759 12.8477 169.83 12.7054C169.617 12.6727 169.387 12.6463 169.147 12.6244L169.577 12.3156C170.274 11.9117 171.357 11.3172 172.364 10.7591C174.383 9.63925 175.768 9.58291 176.359 9.52903C176.88 9.48184 176.844 8.87685 176.71 8.4261C176.604 8.06655 176 8.19298 175.405 8.19298C172.733 8.19298 171.076 8.11269 169.994 8.11269C169.783 8.11269 169.658 8.18699 169.658 8.31834C169.658 8.62577 169.671 8.80642 169.671 8.99447C169.671 9.16315 169.769 9.25893 169.888 9.27583C170.083 9.30436 170.303 9.32514 170.446 9.34169C171.082 9.41564 171.012 10.0678 169.834 10.8253C168.657 11.5831 167.446 12.3265 167.446 12.3265C167.503 8.8927 167.598 4.54401 167.515 4.31758C167.346 3.85239 166.753 3.53052 166.147 3.70413C165.773 3.81119 161.348 4.87362 160.338 5.1159C160.207 5.14724 160.111 5.25711 160.094 5.39233C160.045 5.77371 160.032 6.46322 160.673 6.42237C161.868 6.34595 162.658 7.40416 162.658 8.37468C162.658 9.2871 162.867 16.6498 162.559 18.1679C162.341 19.2448 161.434 19.448 160.944 19.5093C160.456 19.5713 160.251 19.5924 160.223 19.8755C160.18 20.303 160.175 21.1753 160.688 21.1753C161.148 21.1753 167.704 21.0767 168.629 21.0767C169.502 21.0767 170.131 21.1707 170.119 20.2361C170.11 19.5734 169.74 19.5836 169.619 19.5674C168.158 19.3695 167.423 17.8278 167.423 16.3001C167.423 16.167 167.423 15.2113 167.434 14.7989C167.469 13.4858 168.151 13.547 168.534 14.3225C169.062 15.3948 169.425 16.1533 170.824 19.03C171.698 20.8263 173.055 21.0707 174.561 21.0978C176.28 21.1288 176.924 21.1031 177.262 21.077C177.748 21.0394 177.907 20.4337 177.278 20.1752ZM160.012 8.19726C159.056 7.91589 157.406 8.16064 156.163 9.63579C155.663 10.2281 155.517 10.3813 154.988 11.1655C154.988 10.1193 154.956 9.39245 154.956 9.25547C154.956 8.64202 154.182 8.38179 153.579 8.56561C153.208 8.67794 149.241 9.79426 148.303 10.058C148.175 10.0936 148.085 10.2038 148.07 10.3366C148.027 10.7176 148.022 11.4127 148.665 11.361C149.857 11.2645 150.624 12.4005 150.939 13.2791C151.265 14.1919 151.069 17.0172 151.102 18.1155C151.135 19.2139 149.998 19.4132 149.51 19.4829C149.022 19.553 148.819 19.577 148.795 19.8608C148.759 20.2886 148.767 21.1 149.124 21.1H157.204C157.798 21.1 158.048 21.05 158.048 20.5869V19.9421C158.048 19.7168 158.052 19.51 157.73 19.4724C156.556 19.335 155.03 18.2955 155.03 15.0096C155.03 13.5186 155.297 11.7846 156.199 11.7846C156.358 13.1185 157.144 13.9074 158.331 13.9186C160.719 13.9412 161.787 12.5111 161.787 10.613C161.787 9.19948 160.954 8.4744 160.012 8.19726Z" fill="#2D2D2D"/>
</g>
<mask id="mask1" mask-type="alpha" maskUnits="userSpaceOnUse" x="0" y="0" width="100" height="23">
<path fill-rule="evenodd" clip-rule="evenodd" d="M0 0.00219727H99.3872V22.2463H0V0.00219727Z" fill="white"/>
</mask>
<g mask="url(#mask1)">
<path fill-rule="evenodd" clip-rule="evenodd" d="M89.1816 11.571C89.019 11.3463 88.9614 11.1881 88.9614 10.9565C88.9614 10.5512 89.2531 10.1852 89.6506 9.91609C90.3749 9.42658 91.488 9.33302 92.555 9.6726C94.7771 10.381 95.1059 11.9521 95.1541 12.4312C95.1628 12.5139 95.2277 12.5753 95.3078 12.5775C95.5332 12.5833 96.0106 12.5869 96.6637 12.5475C97.585 12.4926 97.7144 11.9637 97.7692 11.722C97.8746 11.2574 97.7709 9.02775 97.6894 8.42554C97.6027 7.77889 96.021 7.72795 95.8121 7.74385C95.4427 7.77239 95.2016 7.86053 95.0747 8.01298C94.9991 8.10546 94.9751 8.21312 94.9751 8.35437C94.9751 8.70804 95.2558 9.31206 95.2558 9.31206C95.2558 9.31206 95.134 9.23403 94.998 9.16648C94.2561 8.79836 92.5047 7.78214 89.6194 8.02057C86.2554 8.29874 84.4125 9.73654 84.4534 12.1577C84.4992 14.8747 87.03 16.2348 87.9159 16.4978C90.3128 17.2106 92.4638 17.2702 93.1575 17.5253C93.5769 17.6795 93.8974 17.8851 93.8728 18.3215C93.8211 19.238 92.6629 19.8041 90.2892 19.7376C87.252 19.6523 86.2336 16.9808 85.8912 16.1637C85.7493 15.8259 85.7122 15.7681 85.5783 15.7681H85.5773C85.5367 15.7674 84.5942 15.8179 84.2155 15.84C84.135 15.8447 84.0722 15.9108 84.0694 15.995C84.0427 16.8508 83.8866 21.0417 83.9088 21.3611C83.9175 21.4857 83.938 21.7762 84.2467 21.8192C84.3806 21.8379 85.1683 21.9449 85.6199 22.0059C85.7916 22.0294 85.9484 21.908 85.9765 21.7303C86.0539 21.2411 86.2752 20.3467 86.868 20.2014C87.159 20.1292 87.4709 20.359 87.9034 20.6743C88.7262 21.2751 92.6643 23.4596 96.7608 21.3369C98.3977 20.4886 99.387 19.4067 99.387 17.7102C99.387 14.5929 95.5933 13.7335 93.1728 13.304C91.4745 13.0023 89.6843 12.2664 89.1816 11.571ZM41.8217 11.571C41.6593 11.3463 41.6017 11.1881 41.6017 10.9565C41.6017 10.5512 41.8935 10.1852 42.2906 9.91609C43.0153 9.42658 44.128 9.33302 45.1954 9.6726C47.4171 10.381 47.7459 11.9521 47.7945 12.4312C47.8028 12.5139 47.868 12.5753 47.9478 12.5775C48.1733 12.5833 48.6509 12.5869 49.3037 12.5475C50.225 12.4926 50.3548 11.9637 50.4096 11.722C50.5147 11.2574 50.4109 9.02775 50.3294 8.42554C50.2431 7.77889 48.6613 7.72795 48.4522 7.74385C48.0831 7.77239 47.842 7.86053 47.7147 8.01298C47.6391 8.10546 47.6155 8.21312 47.6155 8.35437C47.6155 8.70804 47.8958 9.31206 47.8958 9.31206C47.8958 9.31206 47.7744 9.23403 47.638 9.16648C46.8961 8.79836 45.1447 7.78214 42.2598 8.02057C38.8954 8.29874 37.0528 9.73654 37.0938 12.1577C37.1392 14.8747 39.67 16.2348 40.5559 16.4978C42.9532 17.2106 45.1041 17.2702 45.7975 17.5253C46.2169 17.6795 46.5374 17.8851 46.5128 18.3215C46.4611 19.238 45.3032 19.8041 42.9296 19.7376C39.8923 19.6523 38.8739 16.9808 38.5312 16.1637C38.3893 15.8259 38.3526 15.7681 38.2183 15.7681H38.2173C38.1767 15.7674 37.2343 15.8179 36.8558 15.84C36.775 15.8447 36.7122 15.9108 36.7098 15.995C36.6827 16.8508 36.5266 21.0417 36.5492 21.3611C36.5575 21.4857 36.578 21.7762 36.887 21.8192C37.0206 21.8379 37.8083 21.9449 38.2603 22.0059C38.4317 22.0294 38.5888 21.908 38.6169 21.7303C38.6942 21.2411 38.9156 20.3467 39.5084 20.2014C39.799 20.1292 40.1109 20.359 40.5434 20.6743C41.3666 21.2751 45.3043 23.4596 49.4009 21.3369C51.0377 20.4886 52.027 19.4067 52.027 17.7102C52.027 14.5929 48.2333 13.7335 45.8128 13.304C44.1145 13.0023 42.3246 12.2664 41.8217 11.571ZM83.1694 9.37739C82.9255 9.37522 79.3121 9.33151 79.3121 9.33151C79.3201 8.20149 79.3402 5.73844 79.3402 5.40175C79.3402 5.23846 79.2428 5.15176 78.9101 5.15176C78.6139 5.15176 78.5213 5.17127 78.327 5.31577C78.1924 5.4162 75.8337 7.33628 74.6241 8.02267C73.6134 8.59635 72.4028 9.10247 72.032 9.25311C71.9577 9.28346 71.9029 9.34921 71.8852 9.43013C71.8238 9.71155 71.7454 10.3466 72.2907 10.3466C73.2696 10.3466 74.3591 10.3492 74.3522 11.3376C74.3484 11.8556 74.1902 18.5833 74.1902 19.1042C74.1902 19.4673 74.3102 19.9918 74.442 20.2642C74.9138 21.2396 75.7692 22.1027 77.694 22.2273C80.282 22.3949 82.468 21.3812 83.1083 19.6479C83.3404 19.0193 83.381 17.8059 83.1333 17.8192C82.9859 17.8272 82.8433 17.8478 82.7521 17.8633C82.69 17.8742 82.6449 17.9229 82.6258 17.9851C82.2474 19.2213 79.3121 19.8141 79.3121 17.1986V10.7097L83.2204 10.7202C83.6286 10.7234 83.5905 9.37739 83.1694 9.37739ZM70.8472 16.1422C70.8607 14.6285 71.0862 9.74254 70.9315 9.24401C70.7772 8.74511 70.1826 8.3788 69.5537 8.53522C69.15 8.63565 64.31 9.64175 63.5545 9.7989C63.4918 9.8119 63.4442 9.86212 63.4304 9.92751C63.3606 10.2577 63.2039 11.0846 63.9569 11.1713C65.1786 11.3118 65.9376 12.3335 65.9119 13.3222C65.8859 14.3103 65.8023 17.2726 65.7721 18.4358C65.7409 19.5984 64.5855 20.2613 63.5771 20.2902C63.3922 20.2956 63.2822 20.3386 63.2822 20.5503C63.2822 20.917 63.2736 21.2446 63.2982 21.3541C63.3149 21.4281 63.3461 21.5246 63.567 21.5246C63.7883 21.5246 72.1605 21.6127 73.0551 21.6127C73.4744 21.6127 73.5979 21.5589 73.5979 21.3534V20.6276C73.5979 20.4029 73.5362 20.3642 73.3184 20.3256C71.8785 20.0691 70.8122 20.0391 70.8472 16.1422ZM70.1857 4.74338C70.1506 4.27447 70.0126 3.86661 69.8045 3.52522C69.7479 3.39662 69.6792 3.26909 69.5901 3.14446C68.4319 1.52205 65.7665 0.0156097 62.7896 0.0156097C58.2279 0.0156097 54.8539 2.89519 54.6197 8.3285C54.6197 8.3285 52.4396 8.2931 51.9838 8.2931C51.8541 8.2931 51.7525 8.3574 51.7341 8.5019C51.698 8.78116 51.5672 9.53257 52.048 9.55316C53.9176 9.63264 54.5212 9.50837 54.4931 10.4968C54.4657 11.4852 54.4948 17.4192 54.4622 18.5817C54.4289 19.7446 53.3099 19.8851 52.8305 19.9288C52.3515 19.9722 52.1517 19.9855 52.1115 20.2839C52.0705 20.5899 52.0879 21.1188 52.1031 21.4252C52.1097 21.5581 52.2152 21.6614 52.3432 21.6596C53.7373 21.6412 61.1312 21.5465 61.9006 21.5863C62.448 21.6145 62.3033 20.0177 61.919 20.0134C60.0171 19.9924 59.6601 18.8992 59.6601 16.149C59.6601 14.9417 59.7881 9.86601 59.7881 9.86601H62.5007C63.0435 9.86601 63.0016 8.57777 62.5451 8.57777L59.8204 8.49938V6.52185C59.8204 3.29799 60.4364 1.84718 62.2329 1.84718C64.9524 1.84718 64.1966 4.71665 64.951 6.37049C65.3544 7.46835 66.5241 7.79926 67.3621 7.65439C69.1489 7.3448 70.306 6.35893 70.1857 4.74338ZM36.0955 21.0131C36.1056 20.3112 35.7868 20.3137 35.6338 20.2819C34.7694 20.1017 33.6879 18.9377 33.5831 16.635C33.5141 15.1235 33.8509 9.83329 33.6906 9.33656C33.5304 8.83875 32.9317 8.48002 32.3049 8.64547C31.9025 8.7506 27.1909 9.81775 26.4489 9.98574C26.3869 9.99983 26.34 10.0508 26.3272 10.1158C26.2613 10.4467 26.1302 11.3542 26.868 11.3542C28.0966 11.3542 28.8614 12.4914 28.8472 13.4798C28.8323 14.4689 28.6769 17.4331 28.6596 18.5967C28.6426 19.7592 27.4674 19.9145 26.9637 19.9647C26.4604 20.015 26.2502 20.0312 26.2127 20.33C26.1565 20.7805 26.228 21.4018 26.2353 21.4936C26.2464 21.6363 26.3504 21.7129 26.4909 21.7129C26.9998 21.7129 32.8456 21.6814 34.5672 21.8281C35.4597 21.904 36.0802 22.0022 36.0955 21.0131ZM33.5539 4.32531C33.5774 2.74337 32.2104 2.02013 31.1837 2.0129C29.2367 1.99845 27.9498 2.84091 27.7916 4.5753C27.6338 6.30934 28.7563 7.5163 30.2218 7.54809C32.6725 7.60083 33.5289 5.99721 33.5539 4.32531ZM25.3796 20.2736C25.4805 20.5738 25.5638 21.6916 25.1964 21.6916C25.0601 21.6916 15.7067 21.6359 14.3535 21.6222C14.2654 21.6211 14.1953 21.5467 14.1953 21.4553V20.2086C14.1953 20.0652 14.3421 20.0742 14.4468 20.0536C14.6823 20.0074 16.5926 19.6559 16.8416 16.6827C17.09 13.7085 16.869 3.88158 16.869 3.88158C16.869 3.88158 16.5936 4.15325 16.3716 4.96246C15.4389 8.36226 12.76 17.7694 12.3295 19.3365C12.2899 19.4799 12.1647 19.5768 12.0218 19.5768H11.3034C11.1775 19.5768 11.0634 19.5002 11.0117 19.3806C10.2649 17.6621 4.86025 5.21751 4.85817 5.07698C4.85609 4.92561 4.84395 11.6916 4.84395 14.0419C4.84395 15.5422 5.14088 18.1484 6.13536 19.2585C7.02336 20.2501 8.36056 20.2111 8.82398 20.2411C8.97175 20.2509 9.00713 20.2765 9.00713 20.3697C9.00713 20.5713 9.01372 21.382 9.01372 21.382C9.01372 21.382 9.02621 21.6341 8.80039 21.6341C7.72647 21.6341 1.54483 21.68 0.245446 21.6898C0.112593 21.6908 0.00471515 21.5814 0.00367453 21.4434C0.00124641 21.1211 -0.00222233 20.5117 0.00194016 20.253C0.00298078 20.184 0.0446056 20.1252 0.106696 20.1013C0.415414 19.9825 1.31312 19.5634 1.70301 19.1862C2.19141 18.7134 2.95939 17.7907 3.22197 15.2384C3.50779 12.4535 3.2903 6.18315 3.2903 5.47689C3.2903 4.18612 2.29859 3.40906 1.58091 3.04924C1.08002 2.79817 0.723438 2.81298 0.496929 2.76457C0.350201 2.73314 0.245446 2.59912 0.243364 2.44306L0.215961 0.44747C0.213186 0.261062 0.357833 0.108611 0.536473 0.108972L1.10396 0.109695L8.80803 0.122339C8.93984 0.122339 9.05812 0.206873 9.10599 0.334758L13.1051 11.011C13.1051 11.011 15.6088 1.89394 15.7805 1.52185C15.9526 1.15048 16.3733 0.158465 17.1795 0.116197C17.8937 0.0789879 22.9182 0.0497261 23.5463 0.020103C23.8662 0.00493018 24.1485 0.00095635 24.3487 0.000595093C24.5207 0.000595093 24.6602 0.143292 24.6633 0.322114C24.6699 0.716607 24.6803 1.36976 24.6803 1.64395C24.6803 1.86902 22.9414 1.72054 22.8751 3.88628C22.8085 6.05201 22.8689 13.1825 22.8689 14.8389C22.8689 16.8702 23.3438 19.3896 24.1388 19.8506C24.7365 20.197 25.279 19.9727 25.3796 20.2736Z" fill="#2D2D2D"/>
</g>
</svg>
