<svg width="40" height="40" viewBox="0 0 40 40" fill="none" xmlns="http://www.w3.org/2000/svg">
<rect width="40" height="40" fill="white"/>
<path fill-rule="evenodd" clip-rule="evenodd" d="M11.3465 19.0708H15.385C16.3464 19.0708 17.164 19.4074 17.8369 20.0803C18.5103 20.7537 18.8469 21.5705 18.8469 22.5324V29.4551C18.8469 30.4172 18.5103 31.2341 17.8374 31.9074C17.1641 32.5804 16.3469 32.9168 15.3855 32.9168H8.46209C7.50061 32.9168 6.68311 32.5804 6.00996 31.9074C5.33687 31.2341 5.00049 30.4172 5.00049 29.4551V16.7631C5.00049 15.5131 5.24392 14.3202 5.73072 13.1843C6.21752 12.0484 6.87545 11.0659 7.70483 10.2368C8.53426 9.40738 9.51671 8.74926 10.6525 8.2624C11.7885 7.77585 12.9811 7.53223 14.2313 7.53223H15.385C15.6975 7.53223 15.9679 7.64665 16.1963 7.87474C16.4246 8.10314 16.5388 8.37373 16.5388 8.68618V10.9941C16.5388 11.3066 16.4246 11.5769 16.1963 11.8053C15.9678 12.0336 15.6975 12.1478 15.385 12.1478H14.2313C12.9573 12.1478 11.8694 12.5986 10.968 13.4999C10.0664 14.4014 9.6156 15.4891 9.6156 16.7632V17.3399C9.6156 17.8208 9.78401 18.2294 10.1204 18.566C10.457 18.9026 10.8657 19.0708 11.3465 19.0708ZM31.5396 19.0708C32.5013 19.0708 33.3186 19.4074 33.9915 20.0803C34.6645 20.7537 35.0005 21.5705 35.0005 22.5324V29.4551C35.0005 30.4172 34.6645 31.2341 33.9911 31.9074C33.3182 32.5804 32.5009 32.9168 31.5393 32.9168H24.6163C23.6547 32.9168 22.8373 32.5804 22.1644 31.9074C21.4915 31.2341 21.1548 30.4172 21.1548 29.4551V16.7631C21.1548 15.5131 21.3985 14.3202 21.8852 13.1843C22.3718 12.0484 23.0301 11.0659 23.8595 10.2368C24.6889 9.40738 25.6711 8.74926 26.8067 8.2624C27.943 7.77585 29.1354 7.53223 30.3862 7.53223H31.5397C31.8523 7.53223 32.1228 7.64665 32.351 7.87474C32.5792 8.10314 32.6938 8.37373 32.6938 8.68618V10.9941C32.6938 11.3066 32.5792 11.5769 32.351 11.8053C32.1227 12.0336 31.8522 12.1478 31.5397 12.1478H30.3862C29.1116 12.1478 28.0238 12.5986 27.1226 13.4999C26.2215 14.4014 25.7707 15.4891 25.7707 16.7632V17.3399C25.7707 17.8208 25.9388 18.2294 26.2755 18.566C26.6115 18.9026 27.0206 19.0708 27.5012 19.0708H31.5396Z" fill="#DC6B31"/>
</svg>
