<svg width="1440" height="219" viewBox="0 0 1440 219" fill="none" xmlns="http://www.w3.org/2000/svg">
<g clip-path="url(#clip0)">
<rect width="1441" height="219" fill="#F2EBD1"/>
<path d="M405.972 1.66873C235.142 -8.35231 46.6343 29.0947 0 51.7734V160H1441V1.66875C1372.38 13.6751 1050.41 95.8439 926.501 81.8365C793.424 66.7933 556.444 10.4956 405.972 1.66873Z" fill="#4C884B"/>
<path d="M963.681 19.4372C1171.69 12.4525 1441 91.4794 1441 91.4794V219H0V113.397C68.6191 125.352 215.057 147.27 339.764 147.27C574.792 147.27 619.409 30.9974 963.681 19.4372Z" fill="#B0C372"/>
<g filter="url(#filter0_d)">
<path d="M291.737 213.136C338.721 213.136 408 172.632 408 125.631C408 78.6303 361.649 40.5713 314.648 40.5713C267.647 40.5713 231.708 53.0182 231.708 100.019C231.708 147.02 244.702 213.136 291.703 213.136" fill="#DD6C31"/>
</g>
<path d="M360.28 117.596C360.284 117.153 360.359 116.715 360.502 116.296C360.706 115.598 361.148 114.993 361.751 114.586C362.442 114.163 363.219 113.9 364.025 113.817L364.418 116.929C364.187 116.945 363.962 117.008 363.756 117.114C363.551 117.22 363.368 117.366 363.221 117.544C363.083 117.757 362.99 117.995 362.946 118.245C362.902 118.495 362.908 118.75 362.965 118.998C362.975 119.426 363.146 119.835 363.443 120.143C363.567 120.244 363.709 120.318 363.862 120.362C364.014 120.406 364.174 120.419 364.332 120.4C364.472 120.386 364.607 120.339 364.726 120.263C364.847 120.187 364.947 120.081 365.016 119.955C365.173 119.645 365.271 119.309 365.307 118.963C365.307 118.57 365.307 118.143 365.444 117.681C365.482 117.222 365.545 116.766 365.632 116.313C365.712 115.87 365.85 115.438 366.042 115.031C366.251 114.627 366.556 114.28 366.931 114.022C367.39 113.733 367.912 113.557 368.453 113.509C368.781 113.458 369.116 113.458 369.444 113.509C369.767 113.542 370.08 113.635 370.368 113.783C370.973 114.075 371.478 114.539 371.821 115.116C372.25 115.862 372.518 116.689 372.607 117.544C372.875 118.758 372.693 120.028 372.095 121.118C371.787 121.558 371.384 121.925 370.917 122.191C370.45 122.458 369.929 122.616 369.393 122.656V122.656L369.017 119.664C369.217 119.643 369.41 119.582 369.586 119.485C369.762 119.388 369.918 119.257 370.043 119.1C370.266 118.712 370.339 118.256 370.248 117.818C370.235 117.423 370.07 117.05 369.786 116.775C369.678 116.686 369.552 116.62 369.416 116.582C369.281 116.544 369.139 116.534 369 116.553C368.867 116.566 368.74 116.612 368.63 116.686C368.519 116.761 368.429 116.862 368.367 116.98C368.23 117.277 368.144 117.595 368.111 117.92C368.111 118.314 368.025 118.724 367.991 119.169C367.957 119.613 367.871 120.092 367.786 120.571C367.702 121.025 367.546 121.464 367.324 121.87C367.116 122.279 366.811 122.631 366.435 122.896C365.972 123.208 365.436 123.396 364.879 123.443C364.341 123.542 363.786 123.517 363.259 123.368C362.731 123.22 362.244 122.953 361.836 122.588C360.923 121.678 360.385 120.457 360.332 119.169C360.279 118.6 360.279 118.027 360.332 117.459L360.28 117.596ZM357.049 103.559C357.833 102.311 359.051 101.397 360.468 100.994L366.726 98.5319L367.889 101.456L361.614 104.02C360.952 104.206 360.358 104.581 359.904 105.097C359.769 105.29 359.689 105.516 359.671 105.75C359.653 105.985 359.698 106.22 359.801 106.431C359.864 106.658 359.988 106.862 360.16 107.022C360.332 107.183 360.545 107.291 360.776 107.337C361.449 107.377 362.12 107.241 362.725 106.944L368.88 104.516L370.077 107.44L363.802 109.919C362.489 110.563 360.979 110.686 359.579 110.261C358.448 109.642 357.57 108.646 357.099 107.446C356.627 106.246 356.591 104.919 356.997 103.695L357.049 103.559ZM354.142 95.6424C354.898 95.5023 355.601 95.1596 356.177 94.6508L356.929 94.0524C357.566 93.6223 358.079 93.0328 358.417 92.3426C358.516 92.0517 358.535 91.7393 358.472 91.4384C358.409 91.1375 358.266 90.8592 358.058 90.6329C357.896 90.387 357.671 90.1901 357.406 90.0635C357.14 89.9369 356.845 89.8854 356.553 89.9148C355.794 90.0556 355.09 90.4049 354.518 90.9235L353.749 91.5219C353.126 91.9527 352.629 92.5432 352.313 93.2317C352.197 93.519 352.168 93.8339 352.229 94.1376C352.289 94.4413 352.437 94.7207 352.655 94.9414C352.82 95.1802 353.043 95.3729 353.303 95.5016C353.564 95.6302 353.852 95.6904 354.142 95.6766V95.6424ZM349.235 92.8384C349.379 92.1013 349.67 91.4007 350.09 90.778C350.51 90.1554 351.051 89.6234 351.68 89.2138L352.672 88.4273C353.115 88.076 353.59 87.7669 354.091 87.504C354.533 87.279 355.005 87.1178 355.493 87.0253C356.356 86.8558 357.25 86.9511 358.058 87.2989C358.901 87.6829 359.635 88.2704 360.195 89.0086C360.762 89.7231 361.154 90.5604 361.34 91.4535C361.497 92.3215 361.384 93.2167 361.015 94.0182C360.553 94.9861 359.86 95.8257 358.998 96.4631L357.989 97.2325C357.542 97.5914 357.061 97.9063 356.553 98.1729C356.112 98.3827 355.647 98.5377 355.168 98.6345C354.315 98.8085 353.429 98.7067 352.638 98.3438C351.799 97.9521 351.067 97.366 350.5 96.6341C350.048 96.1205 349.703 95.5216 349.486 94.8727C349.269 94.2238 349.183 93.5379 349.235 92.8555V92.8384ZM340.174 86.7517L341.883 84.5462L343.439 85.7772L347.32 80.8531L345.747 79.6221L347.457 77.4507L352.911 81.7251L351.201 83.8965L349.628 82.6654L345.764 87.5895L347.32 88.8205L345.611 91.0261L340.174 86.7517ZM330.428 80.7334C330.225 80.0356 330.163 79.3044 330.246 78.5824C330.328 77.8604 330.552 77.1619 330.907 76.5275L331.522 75.1597C331.77 74.4482 332.16 73.7947 332.668 73.2391C333.177 72.6835 333.793 72.2375 334.48 71.9282C335.13 71.7154 335.815 71.6345 336.496 71.6903C337.177 71.746 337.841 71.9374 338.447 72.2531C339.686 72.7093 340.71 73.6117 341.319 74.7835C341.565 75.3806 341.682 76.0231 341.661 76.6685C341.64 77.314 341.483 77.9477 341.199 78.5279L341.063 78.8527L338.156 77.5533V77.3823C338.403 76.8481 338.469 76.2478 338.344 75.6726C338.259 75.4319 338.121 75.2133 337.941 75.0329C337.76 74.8524 337.542 74.7146 337.301 74.6296C337.041 74.4796 336.746 74.4006 336.446 74.4006C336.146 74.4006 335.851 74.4796 335.591 74.6296C334.964 75.1588 334.516 75.8697 334.309 76.6642L333.882 77.5875C333.532 78.2422 333.389 78.9872 333.471 79.7247C333.529 80.0098 333.657 80.2756 333.846 80.4969C334.034 80.7183 334.276 80.888 334.549 80.9899C334.783 81.1046 335.04 81.1643 335.301 81.1643C335.562 81.1643 335.819 81.1046 336.053 80.9899C336.543 80.6934 336.936 80.2594 337.182 79.7418V79.5366L340.105 80.8702L339.986 81.1438C339.72 81.766 339.334 82.3295 338.85 82.8019C338.366 83.2743 337.793 83.6463 337.164 83.8965C335.845 84.2527 334.439 84.0938 333.232 83.4519C332.591 83.2094 332.005 82.8409 331.509 82.3681C331.012 81.8953 330.616 81.3279 330.343 80.6992L330.428 80.7334ZM319.571 79.4169L320.152 76.6642L322.102 77.0233L323.213 70.8511L321.247 70.492L321.725 67.7906L328.564 69.0046L328.086 71.706L326.119 71.364L325.025 77.5362L326.991 77.8782L326.496 80.6479L319.571 79.4169ZM308.68 79.4169L308.389 67.6026L311.484 67.5171L311.706 76.3907L316.682 76.271V79.2118L308.68 79.4169ZM305.773 79.9299L297.618 82.238L294.472 70.8169L302.474 68.5429L303.175 71.0221L298.045 72.4754L298.575 74.3903L303.226 73.0738L303.927 75.5529L299.276 76.8865L299.824 78.8014L305.141 77.2968L305.773 79.9299ZM284.504 78.733L287.821 84.4949L288.881 83.8794C289.15 83.7361 289.384 83.5341 289.564 83.2885C289.745 83.0429 289.868 82.7598 289.924 82.4603C290.055 81.6341 289.879 80.7886 289.428 80.0837L289.086 79.5024C288.744 78.7433 288.136 78.1353 287.377 77.7927C287.094 77.7028 286.796 77.6731 286.502 77.7055C286.207 77.7379 285.923 77.8317 285.667 77.9807L284.504 78.733ZM280.606 78.0149L284.419 75.8265C284.814 75.5963 285.233 75.4072 285.667 75.2622C286.083 75.1276 286.513 75.0416 286.949 75.0058C287.813 74.9402 288.678 75.1368 289.428 75.57C290.318 76.129 291.043 76.9136 291.531 77.844L292.147 78.9211C292.435 79.3991 292.664 79.91 292.831 80.4428C292.978 80.9014 293.053 81.3802 293.053 81.8619C293.079 82.7218 292.827 83.5671 292.335 84.2726C291.802 84.9827 291.119 85.5665 290.334 85.9824L286.607 88.2221L280.606 78.0149ZM270.826 91.539L278.058 97.0786L276.178 99.4381L269.048 93.8472L267.219 96.1895L265.03 94.4798L270.604 87.3843L272.792 89.0941L270.826 91.539ZM270.826 104.567L269.202 108.158L270.826 109.594L269.561 112.381L260.482 103.832L261.748 101.028L274.229 102.122L272.981 104.875L270.826 104.567ZM264.381 103.747L267.39 106.414L268.381 104.225L264.381 103.747ZM269.51 114.604L268.022 122.947L256.379 120.878L257.832 112.689L260.363 113.133L259.422 118.416L261.371 118.758L262.226 114.005L264.774 114.467L263.936 119.22L265.885 119.562L266.86 114.125L269.51 114.604Z" fill="#2E2E2D"/>
<path d="M365.821 153.893C365.557 154.248 365.247 154.564 364.898 154.834C364.326 155.291 363.612 155.533 362.88 155.518C362.073 155.459 361.286 155.232 360.572 154.851L362.042 152.064C362.239 152.187 362.459 152.268 362.688 152.304C362.917 152.339 363.151 152.327 363.376 152.269C363.61 152.173 363.823 152.031 364.002 151.852C364.181 151.673 364.323 151.46 364.419 151.226C364.659 150.87 364.757 150.437 364.692 150.012C364.65 149.857 364.577 149.712 364.477 149.586C364.377 149.459 364.252 149.354 364.111 149.277C363.982 149.214 363.843 149.174 363.701 149.158C363.571 149.134 363.437 149.134 363.307 149.158C363.001 149.321 362.728 149.542 362.504 149.807L361.649 150.782C361.353 151.134 361.04 151.471 360.709 151.791C360.386 152.104 360.024 152.375 359.632 152.594C359.233 152.811 358.786 152.923 358.332 152.919C357.784 152.905 357.249 152.752 356.776 152.474C356.481 152.32 356.205 152.131 355.956 151.91C355.729 151.687 355.533 151.434 355.374 151.158C355.078 150.59 354.948 149.95 354.998 149.311C355.069 148.452 355.326 147.617 355.75 146.866C356.251 145.744 357.128 144.831 358.23 144.285C358.739 144.102 359.282 144.034 359.82 144.088C360.358 144.141 360.878 144.313 361.341 144.592L359.922 147.26C359.748 147.158 359.555 147.093 359.355 147.069C359.155 147.046 358.952 147.064 358.76 147.123C358.36 147.311 358.043 147.639 357.87 148.046C357.76 148.21 357.684 148.394 357.646 148.588C357.608 148.782 357.609 148.981 357.648 149.175C357.685 149.31 357.75 149.436 357.838 149.545C357.926 149.654 358.036 149.743 358.161 149.807C358.275 149.875 358.405 149.91 358.537 149.91C358.66 149.949 358.791 149.949 358.913 149.91C359.197 149.742 359.451 149.528 359.666 149.277L360.486 148.337C360.788 147.979 361.107 147.636 361.444 147.311C361.774 146.983 362.155 146.712 362.572 146.507C362.978 146.291 363.429 146.174 363.889 146.165C364.447 146.185 364.992 146.337 365.479 146.61C365.952 146.841 366.369 147.172 366.702 147.579C367.036 147.986 367.277 148.46 367.411 148.969C367.631 150.217 367.381 151.502 366.71 152.577C366.467 153.072 366.175 153.542 365.838 153.979L365.821 153.893ZM353.049 156.509L360.127 162.152L358.247 164.494L351.202 158.8L349.322 161.126L347.167 159.416L352.827 152.389L354.981 154.099L353.049 156.509ZM347.527 174.12L345.817 171.931L347.373 170.683L343.423 165.793L341.884 167.041L340.175 164.904L345.509 160.442L347.219 162.579L345.663 163.827L349.595 168.717L351.151 167.469L352.861 169.657L347.527 174.12ZM337.268 175.043L339.2 178.719L336.584 180.104L331.062 169.572L338.14 165.828L339.405 168.221L334.943 170.564L336.003 172.598L340.26 170.358L341.525 172.735L337.268 175.043ZM326.189 183.164C325.752 183.226 325.309 183.226 324.872 183.164C324.148 183.055 323.484 182.698 322.992 182.156C322.485 181.521 322.118 180.787 321.915 180.001V180.001L324.958 179.164C325.004 179.391 325.096 179.607 325.228 179.798C325.36 179.99 325.53 180.152 325.727 180.275C326.199 180.463 326.726 180.463 327.198 180.275C327.62 180.199 327.998 179.967 328.258 179.625C328.35 179.496 328.411 179.346 328.435 179.189C328.459 179.031 328.445 178.87 328.394 178.719C328.363 178.58 328.299 178.451 328.206 178.343C328.121 178.236 328.009 178.153 327.882 178.104C327.551 177.995 327.204 177.943 326.856 177.95H325.556C325.095 177.975 324.633 177.975 324.171 177.95C323.723 177.933 323.28 177.852 322.855 177.71C322.43 177.568 322.048 177.321 321.744 176.992C321.387 176.579 321.135 176.087 321.008 175.556C320.923 175.232 320.877 174.899 320.872 174.564C320.87 174.066 320.984 173.574 321.203 173.126C321.422 172.678 321.742 172.287 322.137 171.983C322.818 171.452 323.605 171.073 324.445 170.871C325.599 170.452 326.864 170.452 328.018 170.871C328.498 171.119 328.917 171.47 329.245 171.898C329.573 172.327 329.802 172.823 329.916 173.35V173.35L327.01 174.137C326.91 173.738 326.658 173.395 326.309 173.179C325.89 173.02 325.428 173.02 325.009 173.179C324.621 173.25 324.273 173.463 324.035 173.778C323.96 173.896 323.912 174.029 323.894 174.168C323.876 174.307 323.889 174.448 323.932 174.581C323.957 174.714 324.016 174.837 324.103 174.94C324.186 175.043 324.3 175.115 324.428 175.146C324.741 175.251 325.072 175.297 325.402 175.282H326.668H328.07C328.53 175.312 328.984 175.404 329.42 175.556C329.857 175.712 330.249 175.97 330.566 176.308C330.931 176.725 331.189 177.223 331.318 177.762C331.476 178.265 331.522 178.797 331.451 179.32C331.38 179.844 331.194 180.345 330.908 180.788C330.147 181.799 329.038 182.493 327.796 182.737C327.235 182.886 326.664 182.989 326.086 183.045L326.189 183.164ZM311.759 184.088L311.656 181.284H313.639L313.4 175.009H311.417L311.314 172.256L318.239 172L318.341 174.752H316.341L316.58 181.01H318.581L318.683 183.814L311.759 184.088ZM300.286 175.026L298.936 182.053L296.097 181.523L298.32 169.897L301.021 170.41L303.073 175.009L306.681 171.589L309.348 172.085L307.125 183.626L304.287 183.079L305.638 176.035L302.475 179.078L302.099 178.993L300.286 175.026ZM287.241 166.648L282.265 174.205L279.752 172.496L284.745 164.921L282.248 163.212L283.77 160.903L291.31 165.862L289.788 168.17L287.241 166.648ZM274.931 165.571L272.161 162.75L270.229 163.742L268.092 161.553L279.427 156.167L281.582 158.373L276.025 169.606L273.905 167.435L274.931 165.571ZM278.06 159.69L274.486 161.519L276.196 163.229L278.06 159.69ZM266.091 158.151L261.783 150.85L272.041 144.832L276.264 151.979L274.059 153.295L271.221 148.679L269.511 149.688L271.973 153.842L269.75 155.159L267.288 151.004L265.578 152.013L268.399 156.783L266.091 158.151Z" fill="#2E2E2D"/>
</g>
<defs>
<filter id="filter0_d" x="202.412" y="11.275" width="234.885" height="231.157" filterUnits="userSpaceOnUse" color-interpolation-filters="sRGB">
<feFlood flood-opacity="0" result="BackgroundImageFix"/>
<feColorMatrix in="SourceAlpha" type="matrix" values="0 0 0 0 0 0 0 0 0 0 0 0 0 0 0 0 0 0 127 0"/>
<feOffset/>
<feGaussianBlur stdDeviation="14.6482"/>
<feColorMatrix type="matrix" values="0 0 0 0 0 0 0 0 0 0 0 0 0 0 0 0 0 0 0.1 0"/>
<feBlend mode="normal" in2="BackgroundImageFix" result="effect1_dropShadow"/>
<feBlend mode="normal" in="SourceGraphic" in2="effect1_dropShadow" result="shape"/>
</filter>
<clipPath id="clip0">
<rect width="1441" height="219" fill="white"/>
</clipPath>
</defs>
</svg>
