<svg width="31" height="32" viewBox="0 0 31 32" fill="none" xmlns="http://www.w3.org/2000/svg">
<path d="M16.7272 1C16.7272 1 4.00012 1 4.00012 13.7027V20.2591C4.00012 20.2591 4.00012 31 15.3825 31H16.5573C16.5573 31 27.9397 31 27.9397 20.2591V13.7027C27.9397 13.7027 29.2844 1 17.8991 1H16.7272Z" fill="#B0C472"/>
<path d="M16.9068 19.2362C16.9068 19.2362 18.9184 19.023 19.7053 18.8137C20.4921 18.6044 21.7207 18.368 21.4843 16.7905C21.3021 15.585 20.5153 15.1587 19.1898 15.3176C17.2208 15.5502 13.4069 16.2595 13.0077 16.1393C12.6084 16.0191 13.1046 14.213 13.1898 13.2168C13.2712 12.275 13.279 10.6316 12.9185 9.40293C12.5774 8.24015 11.779 7.46109 10.6123 7.68201C9.09296 7.96883 9.01932 9.07735 9.13172 10.6936C9.18598 11.4649 9.26738 12.5618 9.13172 14.054C8.87203 16.9184 6.27516 17.2556 5.56974 17.3951C4.99222 17.5114 4.05037 17.6238 2.5 17.0346" stroke="#2D2D2D" stroke-width="1.55773" stroke-miterlimit="10" stroke-linecap="round" stroke-linejoin="round"/>
<path d="M19.0851 18.9415C19.0851 18.9415 21.2595 18.6198 21.5153 20.3097C21.6897 21.4608 20.8836 22.0887 19.8254 22.3058C18.7673 22.5267 16.0929 22.8678 16.0929 22.8678" stroke="#2D2D2D" stroke-width="1.55773" stroke-miterlimit="10" stroke-linecap="round" stroke-linejoin="round"/>
<path d="M19.469 22.3762C19.469 22.3762 21.252 22.0894 21.4884 23.6746C21.7093 25.132 20.6396 25.3335 20.0582 25.4847C19.4768 25.632 15.5582 26.163 15.5582 26.163" stroke="#2D2D2D" stroke-width="1.55773" stroke-miterlimit="10" stroke-linecap="round" stroke-linejoin="round"/>
<path d="M18.5501 25.7361C18.5501 25.7361 20.5424 25.4337 20.7982 27.112C21.0501 28.7864 19.3835 29.0345 18.7323 29.1352C18.0811 29.2321 13.6432 29.9918 11.93 30.2205C10.8603 30.3639 8.56185 30.3174 6.98047 29.7786" stroke="#2D2D2D" stroke-width="1.55773" stroke-miterlimit="10" stroke-linecap="round" stroke-linejoin="round"/>
<path d="M10.3643 4.32943C10.2441 3.29455 9.91467 1 9.91467 1" stroke="#2D2D2D" stroke-width="1.55773" stroke-miterlimit="10" stroke-linecap="round" stroke-linejoin="round"/>
<path d="M15.6549 4.84079C16.1084 4.32529 17.0619 3.15088 17.0619 3.15088" stroke="#2D2D2D" stroke-width="1.55773" stroke-miterlimit="10" stroke-linecap="round" stroke-linejoin="round"/>
<path d="M5.42628 6.38373C4.85264 6.00001 3.5387 5.18994 3.5387 5.18994" stroke="#2D2D2D" stroke-width="1.55773" stroke-miterlimit="10" stroke-linecap="round" stroke-linejoin="round"/>
</svg>
