<svg width="31" height="30" viewBox="0 0 31 30" fill="none" xmlns="http://www.w3.org/2000/svg">
<path d="M14.8706 27.8717C21.7576 26.197 28.5001 22.155 28.5001 15.0681C28.5001 7.98117 22.7491 3.66128 14.8706 2.20546C7.90166 0.919011 3.32486 7.58724 2.03841 15.0395C0.831888 22.0236 8.3032 29.4683 14.8706 27.8717Z" fill="#B0C472"/>
<path d="M15.677 8.77906H17.8178C18.4421 8.75242 19.0534 8.59128 19.6107 8.30655C20.1679 8.02181 20.6581 7.62006 21.0481 7.1284C22.6207 5.1152 22.2465 2 22.2465 2C17.8463 2 16.3022 4.06093 15.8001 5.91193C15.5568 6.8479 15.5148 7.82543 15.677 8.77906V8.77906Z" stroke="#2D2D2D" stroke-width="1.55773" stroke-linecap="round" stroke-linejoin="round"/>
<path d="M22.0427 17.3468C22.0427 17.1941 22.1374 17.0415 22.0948 16.8697C21.8864 16.1971 21.0669 15.9585 21.0669 15.2668C21.0722 14.709 21.2776 14.172 21.6449 13.7545C21.7155 13.6726 21.7563 13.5689 21.7606 13.4605C21.7649 13.3521 21.7324 13.2455 21.6685 13.1582C21.4214 12.8028 21.2877 12.3802 21.2849 11.9464C21.2849 10.9923 22.8905 10.167 24.1268 9.75195C24.1991 9.73038 24.2652 9.69172 24.3198 9.63915C24.3743 9.58659 24.4156 9.52165 24.4401 9.44977C24.4647 9.37789 24.4719 9.30115 24.4611 9.22592C24.4502 9.15069 24.4217 9.07919 24.3778 9.01732C24.0215 8.50921 23.5651 8.08045 23.037 7.75788C22.5089 7.4353 21.9205 7.22582 21.3085 7.14245C21.2285 7.13092 21.1469 7.14019 21.0714 7.16941C20.996 7.19864 20.9292 7.24685 20.8775 7.30941C20.0913 8.16676 19.0034 8.6804 17.8462 8.74059H16.0984C15.9798 8.74107 15.8654 8.69675 15.7777 8.61637C15.69 8.536 15.6354 8.42539 15.6247 8.30645C15.5602 7.65389 15.5874 6.99545 15.7053 6.35051C15.7197 6.28571 15.7205 6.21863 15.7076 6.1535C15.6948 6.08838 15.6685 6.02667 15.6306 5.97234C15.5927 5.918 15.5439 5.8722 15.4875 5.83793C15.431 5.80366 15.3681 5.78165 15.3027 5.77329C14.9314 5.71354 14.5561 5.6832 14.1802 5.68262C10.391 5.68262 8.17904 6.88484 5.36084 9.28922C4.14357 10.3244 3.91153 10.3292 3.15369 11.9131C2.7951 12.7525 2.57428 13.6452 2.5 14.556C2.5 14.9996 2.5 16.8936 2.5 17.4183C2.62263 18.8294 2.97463 20.2106 3.542 21.5067C4.28089 23.3148 4.45147 23.415 5.74452 24.6792C8.17907 27.0168 10.6705 28.3907 14.1802 28.3907C16.2169 28.3907 19.1818 27.9137 20.7259 26.4825C22.5068 24.7842 23.0941 21.8454 24.6335 19.899L24.8798 19.5985C22.7815 19.7511 22.0427 18.3009 22.0427 17.3468Z" fill="#B0C472" stroke="#2D2D2D" stroke-width="1.55773" stroke-linecap="round" stroke-linejoin="round"/>
<path d="M24.2024 9.54199C24.0008 9.74099 23.8405 9.9785 23.7312 10.2406C23.6218 10.5028 23.5655 10.7842 23.5655 11.0686C23.5655 11.3529 23.6218 11.6344 23.7312 11.8965C23.8405 12.1586 24.0008 12.3962 24.2024 12.5952C23.9372 12.8117 23.7234 13.085 23.5766 13.3953C23.4297 13.7057 23.3534 14.0451 23.3534 14.3889C23.3534 14.7327 23.4297 15.0722 23.5766 15.3825C23.7234 15.6928 23.9372 15.9662 24.2024 16.1826C24.1622 16.3384 24.1431 16.4988 24.1455 16.6597C24.1455 17.5756 24.7802 17.9621 25.4717 18.1863C25.5217 18.2038 25.5665 18.2338 25.6018 18.2736C25.6372 18.3133 25.6619 18.3613 25.6738 18.4133C25.6856 18.4653 25.6842 18.5194 25.6696 18.5707C25.655 18.6219 25.6276 18.6686 25.5901 18.7063C25.1829 19.1717 24.8094 19.6659 24.4724 20.1852" stroke="#2D2D2D" stroke-width="1.55773" stroke-linecap="round" stroke-linejoin="round"/>
</svg>
