<svg width="31" height="30" viewBox="0 0 31 30" fill="none" xmlns="http://www.w3.org/2000/svg">
<path d="M4.52222 16.4445C4.52222 25.0057 11.6747 30 18.5877 30C25.5008 30 29.7923 26.8498 29.7923 18.2886C29.7923 9.73049 21.8219 0 14.9089 0C7.99584 0 4.52222 7.88639 4.52222 16.4445Z" fill="#B0C472"/>
<path d="M8.68829 5.42491C10.7765 3.75437 13.4235 2.75439 16.2998 2.75439C23.0291 2.75439 28.4819 8.20718 28.4819 14.9364C28.4819 19.7892 25.6466 23.9773 21.5409 25.9361" stroke="#2D2D2D" stroke-width="1.26909" stroke-miterlimit="10" stroke-linecap="round" stroke-linejoin="round"/>
<path d="M25.8581 16.6303C25.8581 20.3596 24.1817 23.7006 21.5406 25.9359C19.4171 27.7299 16.676 28.8123 13.682 28.8123C6.95279 28.8064 1.5 23.3536 1.5 16.6303C1.5 11.6598 4.47639 7.38345 8.74098 5.48939C10.2527 4.81882 11.9174 4.44824 13.6761 4.44824C20.4054 4.44824 25.8581 9.90103 25.8581 16.6303Z" stroke="#2D2D2D" stroke-width="1.26909" stroke-miterlimit="10" stroke-linecap="round" stroke-linejoin="round"/>
<path d="M16.1228 13.7717C16.0934 10.6483 10.5112 10.6954 10.5289 13.7717C10.5465 16.7187 11.9288 16.5305 13.4111 16.4128C16.3758 16.1893 17.3169 17.9952 16.6464 20.1069C15.8758 22.5244 10.823 22.3656 10.5112 18.5069" stroke="#2D2D2D" stroke-width="1.26909" stroke-miterlimit="10" stroke-linecap="round" stroke-linejoin="round"/>
<path d="M12.8348 8.90137L14.3348 24.3539" stroke="#2D2D2D" stroke-width="1.26909" stroke-miterlimit="10" stroke-linecap="round" stroke-linejoin="round"/>
<path d="M16.6877 4.81297L19.0877 3.0542" stroke="#2D2D2D" stroke-width="1.26909" stroke-miterlimit="10" stroke-linecap="round" stroke-linejoin="round"/>
<path d="M20.8407 6.13057L22.7877 4.69531" stroke="#2D2D2D" stroke-width="1.26909" stroke-miterlimit="10" stroke-linecap="round" stroke-linejoin="round"/>
<path d="M23.3113 9.21851L25.7289 7.26562" stroke="#2D2D2D" stroke-width="1.26909" stroke-miterlimit="10" stroke-linecap="round" stroke-linejoin="round"/>
<path d="M25.6229 12.3304L27.5228 10.4775" stroke="#2D2D2D" stroke-width="1.26909" stroke-miterlimit="10" stroke-linecap="round" stroke-linejoin="round"/>
<path d="M25.8583 17.5894L28.4818 14.9365" stroke="#2D2D2D" stroke-width="1.26909" stroke-miterlimit="10" stroke-linecap="round" stroke-linejoin="round"/>
</svg>
