<svg id="Layer_1" data-name="Layer 1" xmlns="http://www.w3.org/2000/svg" viewBox="0 0 106 106"><defs><style>.cls-1{fill:#e1a654;}</style></defs><path class="cls-1" d="M40.28,82.47c25.88,0,40-21.44,40-40,0-.61,0-1.22,0-1.82a28.62,28.62,0,0,0,7-7.28,28.17,28.17,0,0,1-8.09,2.21,14.1,14.1,0,0,0,6.19-7.78,28.23,28.23,0,0,1-8.93,3.41A14.1,14.1,0,0,0,52.48,44a39.94,39.94,0,0,1-29-14.71,14.07,14.07,0,0,0,4.36,18.79,14.05,14.05,0,0,1-6.38-1.76v.18A14.07,14.07,0,0,0,32.75,60.3a13.79,13.79,0,0,1-3.71.5,14.43,14.43,0,0,1-2.65-.25,14.08,14.08,0,0,0,13.15,9.77,28.28,28.28,0,0,1-17.48,6,28.86,28.86,0,0,1-3.36-.19,39.88,39.88,0,0,0,21.58,6.32"/></svg>