<svg id="Layer_1" data-name="Layer 1" xmlns="http://www.w3.org/2000/svg" viewBox="0 0 106 106"><defs><style>.cls-1{fill:#4c884b;}</style></defs><path class="cls-1" d="M53,28.87c8.3,0,9.28,0,12.56.18a17.15,17.15,0,0,1,5.77,1.07A10.23,10.23,0,0,1,77.22,36a16.84,16.84,0,0,1,1.07,5.77c.15,3.27.19,4.26.19,12.55s0,9.28-.19,12.56a16.9,16.9,0,0,1-1.07,5.77,9.47,9.47,0,0,1-2.32,3.57,9.7,9.7,0,0,1-3.57,2.33,17.41,17.41,0,0,1-5.77,1.07c-3.28.15-4.26.18-12.56.18s-9.28,0-12.56-.18a17.41,17.41,0,0,1-5.77-1.07,9.7,9.7,0,0,1-3.57-2.33,9.47,9.47,0,0,1-2.32-3.57,16.9,16.9,0,0,1-1.07-5.77c-.15-3.28-.19-4.26-.19-12.56s0-9.28.19-12.55A16.84,16.84,0,0,1,28.78,36a10.23,10.23,0,0,1,5.89-5.9,17.15,17.15,0,0,1,5.77-1.07c3.28-.15,4.26-.18,12.56-.18m0-5.6c-8.44,0-9.5,0-12.81.18a23,23,0,0,0-7.55,1.45,15.3,15.3,0,0,0-5.5,3.58A15.12,15.12,0,0,0,23.56,34a22.65,22.65,0,0,0-1.45,7.54c-.15,3.31-.18,4.37-.18,12.81s0,9.5.18,12.81a22.77,22.77,0,0,0,1.45,7.55,15.17,15.17,0,0,0,3.58,5.5,15.33,15.33,0,0,0,5.5,3.59,23.06,23.06,0,0,0,7.55,1.44c3.31.15,4.37.19,12.81.19s9.5,0,12.81-.19a23.06,23.06,0,0,0,7.55-1.44,15.33,15.33,0,0,0,5.5-3.59,15.17,15.17,0,0,0,3.58-5.5,22.77,22.77,0,0,0,1.45-7.55c.15-3.31.18-4.37.18-12.81s0-9.5-.18-12.81A22.65,22.65,0,0,0,82.44,34a15.12,15.12,0,0,0-3.58-5.51,15.3,15.3,0,0,0-5.5-3.58,23,23,0,0,0-7.55-1.45c-3.31-.15-4.37-.18-12.81-.18Z"/><path class="cls-1" d="M53,38.39a16,16,0,1,0,16,16A16,16,0,0,0,53,38.39ZM53,64.7A10.36,10.36,0,1,1,63.36,54.34,10.36,10.36,0,0,1,53,64.7Z"/><circle class="cls-1" cx="69.59" cy="37.75" r="3.73"/></svg>