<svg id="Layer_1" data-name="Layer 1" xmlns="http://www.w3.org/2000/svg" viewBox="0 0 106 106"><defs><style>.cls-1{fill:#b0c471;}</style></defs><path class="cls-1" d="M53,23.44A31.13,31.13,0,0,0,41.68,83.56a30.18,30.18,0,0,1,.1-8.94c.56-2.43,3.64-15.47,3.64-15.47a11.36,11.36,0,0,1-.92-4.61C44.5,50.21,47,47,50.13,47c2.67,0,3.95,2,3.95,4.38,0,2.66-1.69,6.66-2.59,10.38a4.53,4.53,0,0,0,4.61,5.63c5.53,0,9.78-5.84,9.78-14.24,0-7.46-5.35-12.66-13-12.66C44,40.47,38.81,47.11,38.81,54a12.15,12.15,0,0,0,2.3,7.1.92.92,0,0,1,.21.9c-.23,1-.77,3.1-.87,3.53s-.46.69-1.05.41c-3.9-1.82-6.33-7.48-6.33-12.06C33.07,44,40.19,35,53.64,35c10.78,0,19.19,7.68,19.19,18,0,10.73-6.77,19.37-16.14,19.37-3.15,0-6.12-1.64-7.12-3.59,0,0-1.57,5.94-2,7.4a33.7,33.7,0,0,1-3.87,8.17A31.15,31.15,0,1,0,53,23.44Z"/></svg>