<svg width="147" height="68" viewBox="0 0 147 68" fill="none" xmlns="http://www.w3.org/2000/svg">
<g clip-path="url(#clip0)">
<path d="M13.9138 46.5379C14.53 46.6505 15.1873 46.4627 15.6527 45.9802C24.4381 36.8827 33.361 29.7966 42.1718 24.9151C52.7194 19.0707 63.1935 16.355 73.3057 16.8502C81.7853 17.265 90.7219 19.9884 99.866 24.9472C113.693 32.4436 125.357 43.4934 133.596 56.8928C134.156 57.8016 135.346 58.0883 136.255 57.5277C137.164 56.9671 137.451 55.7772 136.89 54.8684C128.297 40.892 116.13 29.3699 101.709 21.5468C92.0489 16.3068 82.5555 13.4296 73.4932 12.9845C62.6532 12.4566 51.4853 15.3327 40.2985 21.5309C31.1523 26.6003 21.9268 33.9217 12.8735 43.2921C12.131 44.0596 12.1528 45.2851 12.921 46.0242C13.206 46.3012 13.5521 46.4718 13.9138 46.5379Z" fill="#2D2D2D"/>
<path d="M12.0618 48.2996C12.3766 48.3572 12.7088 48.3383 13.0229 48.2296C26.2954 43.7795 42.8138 38.234 58.0509 41.801C59.0945 42.0367 60.1316 41.3992 60.3734 40.3603C60.6152 39.3213 59.9715 38.2797 58.9325 38.0379C44.1481 34.5882 28.7255 38.9672 15.7393 43.2516C19.8352 32.8851 23.8532 22.3764 27.701 11.9473C28.0709 10.9456 27.5576 9.8344 26.5558 9.46443C25.5534 9.09781 24.4427 9.60766 24.0728 10.6093C19.7552 22.3022 15.2278 34.102 10.6126 45.6816C10.3324 46.3813 10.4879 47.178 11.0038 47.7256C11.294 48.0313 11.6666 48.2274 12.0618 48.2996Z" fill="#2D2D2D"/>
</g>
<defs>
<clipPath id="clip0">
<rect width="147" height="68" fill="white"/>
</clipPath>
</defs>
</svg>
