<svg width="497" height="109" viewBox="0 0 497 109" fill="none" xmlns="http://www.w3.org/2000/svg">
<path d="M27.5502 45.5493V37.1493H0.200195V45.5493H9.2502V72.9993H18.3502V45.5493H27.5502Z" fill="#2D2D2D"/>
<path d="M40.483 57.8493C40.483 55.8826 40.8497 54.2993 41.583 53.0993C42.3163 51.8659 43.5163 51.2493 45.183 51.2493C46.8497 51.2493 47.983 51.7993 48.583 52.8993C49.183 53.9659 49.483 55.3826 49.483 57.1493V72.9993H58.633V54.4493C58.633 50.9493 57.8663 48.2326 56.333 46.2993C54.7997 44.3659 52.3997 43.3993 49.133 43.3993C47.033 43.3993 45.2663 43.8493 43.833 44.7493C42.3997 45.6493 41.283 46.8826 40.483 48.4493V34.4993H31.433V72.9993H40.483V57.8493Z" fill="#2D2D2D"/>
<path d="M77.4119 50.2993C79.1119 50.2993 80.3952 50.7493 81.2619 51.6493C82.1619 52.5493 82.7119 53.8159 82.9119 55.4493H71.4619C71.7619 53.7159 72.4119 52.4326 73.4119 51.5993C74.4119 50.7326 75.7453 50.2993 77.4119 50.2993ZM91.7119 63.7993H82.0619C81.7286 64.6326 81.1786 65.2993 80.4119 65.7993C79.6786 66.2993 78.6786 66.5493 77.4119 66.5493C75.6453 66.5493 74.2619 66.0993 73.2619 65.1993C72.2953 64.2993 71.6952 62.9493 71.4619 61.1493H91.9119V57.8993C91.9119 55.2659 91.3952 52.8659 90.3619 50.6993C89.3619 48.4993 87.7953 46.7326 85.6619 45.3993C84.5953 44.7326 83.3619 44.2326 81.9619 43.8993C80.5619 43.5659 79.0119 43.3993 77.3119 43.3993C74.3119 43.3993 71.6952 43.9993 69.4619 45.1993C67.2286 46.3993 65.4953 48.1159 64.2619 50.3493C63.6286 51.4493 63.1619 52.6659 62.8619 53.9993C62.5619 55.3326 62.4119 56.7826 62.4119 58.3493V59.1993C62.4119 63.6659 63.6119 67.2159 66.0119 69.8493C68.4119 72.4493 72.1286 73.7493 77.1619 73.7493C81.3953 73.7493 84.6786 72.8493 87.0119 71.0493C89.3453 69.2493 90.9119 66.8326 91.7119 63.7993Z" fill="#2D2D2D"/>
<path d="M157.217 72.9993H164.917V43.9993H155.667V59.0993C155.667 61.0326 155.333 62.6159 154.667 63.8493C154 65.0493 152.867 65.6493 151.267 65.6493C149.633 65.6493 148.55 65.1159 148.017 64.0493C147.483 62.9493 147.217 61.5159 147.217 59.7493V43.9993H138.117V62.4493C138.117 65.9826 138.9 68.7159 140.467 70.6493C142.067 72.5826 144.483 73.5493 147.717 73.5493C149.883 73.5493 151.683 73.0659 153.117 72.0993C154.55 71.0993 155.633 69.7659 156.367 68.0993L157.217 72.9993Z" fill="#2D2D2D"/>
<path d="M182.064 85.2493C187.531 85.2493 191.498 84.3159 193.964 82.4493C196.464 80.5826 197.714 78.0659 197.714 74.8993C197.714 72.1993 196.764 70.0826 194.864 68.5493C192.964 66.9826 189.981 66.1993 185.914 66.1993H179.714C178.148 66.1993 177.081 66.0993 176.514 65.8993C175.948 65.6993 175.664 65.3493 175.664 64.8493C175.664 64.4826 175.781 64.1993 176.014 63.9993C176.281 63.7659 176.798 63.5826 177.564 63.4493C177.931 63.4159 178.381 63.3826 178.914 63.3493C179.481 63.3159 180.131 63.2993 180.864 63.2993H182.564C186.898 63.2993 190.248 62.4659 192.614 60.7993C195.014 59.0993 196.214 56.6159 196.214 53.3493V53.1493C196.214 50.9493 195.564 49.1326 194.264 47.6993C192.964 46.2659 191.081 45.2993 188.614 44.7993C190.714 44.7993 192.331 44.6493 193.464 44.3493C194.631 44.0159 195.431 43.4326 195.864 42.5993C196.098 42.1659 196.264 41.6493 196.364 41.0493C196.498 40.4493 196.564 39.7659 196.564 38.9993V38.1493H186.764V39.1493C186.764 40.3493 186.664 41.2659 186.464 41.8993C186.298 42.5326 185.914 42.9659 185.314 43.1993C185.014 43.3326 184.614 43.4326 184.114 43.4993C183.648 43.5659 183.081 43.6159 182.414 43.6493L181.664 43.6993C177.898 43.8326 174.881 44.6993 172.614 46.2993C170.348 47.8659 169.214 50.1826 169.214 53.2493V53.2993C169.214 55.3326 169.681 57.0159 170.614 58.3493C171.548 59.6493 172.914 60.6326 174.714 61.2993C172.714 61.7326 171.164 62.4993 170.064 63.5993C168.998 64.6659 168.464 66.0493 168.464 67.7493C168.464 69.3159 168.964 70.5826 169.964 71.5493C170.964 72.5159 172.381 73.1493 174.214 73.4493C172.081 73.8493 170.498 74.5159 169.464 75.4493C168.464 76.4159 167.964 77.6159 167.964 79.0493C167.964 80.3493 168.348 81.4493 169.114 82.3493C169.914 83.2826 171.298 83.9993 173.264 84.4993C174.264 84.7659 175.464 84.9493 176.864 85.0493C178.264 85.1826 179.864 85.2493 181.664 85.2493H182.064ZM182.664 57.2993C181.331 57.2993 180.264 56.9993 179.464 56.3993C178.664 55.7993 178.264 54.8659 178.264 53.5993V53.3993C178.264 52.0326 178.681 51.0326 179.514 50.3993C180.381 49.7326 181.448 49.3993 182.714 49.3993C183.981 49.3993 185.031 49.6993 185.864 50.2993C186.698 50.8659 187.114 51.8826 187.114 53.3493V53.5493C187.114 54.8159 186.714 55.7659 185.914 56.3993C185.114 56.9993 184.031 57.2993 182.664 57.2993ZM181.564 78.8493C179.598 78.8493 178.214 78.5993 177.414 78.0993C176.614 77.5993 176.214 77.0159 176.214 76.3493V76.2993C176.214 75.5326 176.631 74.9159 177.464 74.4493C178.331 73.9826 179.514 73.7159 181.014 73.6493H185.464C187.131 73.6493 188.281 73.8493 188.914 74.2493C189.548 74.6493 189.864 75.1826 189.864 75.8493C189.864 76.7159 189.314 77.4326 188.214 77.9993C187.148 78.5659 185.348 78.8493 182.814 78.8493H181.564Z" fill="#2D2D2D"/>
<path d="M209.237 72.9993V34.4993H200.037V72.9993H209.237Z" fill="#2D2D2D"/>
<path d="M217.001 83.9993C219.001 83.9993 220.651 83.8826 221.951 83.6493C223.285 83.4159 224.418 82.9659 225.351 82.2993C226.251 81.6326 227.051 80.6659 227.751 79.3993C228.485 78.1659 229.251 76.5493 230.051 74.5493L242.001 43.9993H232.801L226.751 61.0993L220.501 43.9993H211.051L222.251 71.6993L221.851 72.7493C221.485 73.7159 221.085 74.4493 220.651 74.9493C220.218 75.4826 219.651 75.8493 218.951 76.0493C218.585 76.1493 218.168 76.2159 217.701 76.2493C217.268 76.3159 216.751 76.3493 216.151 76.3493H212.501V83.9993H217.001Z" fill="#2D2D2D"/>
<path d="M300.86 65.9493C299.227 65.9493 297.91 65.3659 296.91 64.1993C295.91 62.9993 295.41 61.2826 295.41 59.0493V58.3993C295.41 55.9659 295.91 54.1493 296.91 52.9493C297.943 51.7159 299.277 51.0993 300.91 51.0993C302.477 51.0993 303.777 51.6826 304.81 52.8493C305.843 54.0159 306.36 55.8826 306.36 58.4493V59.1493C306.36 61.4159 305.86 63.1159 304.86 64.2493C303.86 65.3826 302.527 65.9493 300.86 65.9493ZM303.96 73.5493C306.16 73.5493 308.11 73.0493 309.81 72.0493C311.543 71.0159 312.893 69.4493 313.86 67.3493C314.36 66.2826 314.727 65.0826 314.96 63.7493C315.227 62.4159 315.36 60.9326 315.36 59.2993V58.4493C315.36 53.4826 314.343 49.7326 312.31 47.1993C310.277 44.6659 307.477 43.3993 303.91 43.3993C301.71 43.3993 299.877 43.9159 298.41 44.9493C296.977 45.9493 295.893 47.2993 295.16 48.9993L294.31 43.9993H286.56V82.8993H295.51V68.7993C296.243 70.2993 297.293 71.4659 298.66 72.2993C300.06 73.1326 301.827 73.5493 303.96 73.5493Z" fill="#2D2D2D"/>
<path d="M328.574 72.9993V60.1493C328.574 58.4159 328.757 57.0493 329.124 56.0493C329.49 55.0159 330.14 54.2826 331.074 53.8493C331.574 53.6159 332.157 53.4493 332.824 53.3493C333.524 53.2159 334.307 53.1493 335.174 53.1493H338.574V43.5993H336.924C334.324 43.5993 332.274 44.0993 330.774 45.0993C329.274 46.0659 328.29 47.6826 327.824 49.9493L326.574 43.9993H319.274V72.9993H328.574Z" fill="#2D2D2D"/>
<path d="M355.039 73.7493C358.006 73.7493 360.573 73.2159 362.739 72.1493C364.939 71.0493 366.656 69.4159 367.889 67.2493C368.489 66.1826 368.939 64.9826 369.239 63.6493C369.539 62.2826 369.689 60.7993 369.689 59.1993V58.2993C369.689 55.0659 369.073 52.3493 367.839 50.1493C366.639 47.9159 364.939 46.2326 362.739 45.0993C361.639 44.5326 360.456 44.1159 359.189 43.8493C357.923 43.5493 356.556 43.3993 355.089 43.3993C352.256 43.3993 349.723 43.9659 347.489 45.0993C345.289 46.1993 343.573 47.8493 342.339 50.0493C341.706 51.1493 341.223 52.3993 340.889 53.7993C340.589 55.1659 340.439 56.6659 340.439 58.2993V59.1993C340.439 64.0326 341.689 67.6659 344.189 70.0993C346.723 72.5326 350.339 73.7493 355.039 73.7493ZM355.089 65.8993C353.423 65.8993 352.073 65.3326 351.039 64.1993C350.006 63.0326 349.489 61.3326 349.489 59.0993V58.2993C349.489 55.8659 350.006 54.0659 351.039 52.8993C352.073 51.6993 353.439 51.0993 355.139 51.0993C356.906 51.0993 358.256 51.7159 359.189 52.9493C360.156 54.1493 360.639 55.9326 360.639 58.2993V59.0993C360.639 61.3659 360.123 63.0659 359.089 64.1993C358.089 65.3326 356.756 65.8993 355.089 65.8993Z" fill="#2D2D2D"/>
<path d="M390.822 73.7493C394.388 73.7493 397.188 72.4659 399.222 69.8993C401.288 67.2993 402.322 63.5326 402.322 58.5993V57.6993C402.322 54.4326 401.822 51.7493 400.822 49.6493C399.855 47.5493 398.522 45.9826 396.822 44.9493C395.988 44.4493 395.088 44.0659 394.122 43.7993C393.155 43.5326 392.122 43.3993 391.022 43.3993C388.988 43.3993 387.255 43.8659 385.822 44.7993C384.388 45.6993 383.288 46.9826 382.522 48.6493V34.4993H373.522V72.9993H381.472L382.172 68.1493C382.872 69.8493 383.938 71.2159 385.372 72.2493C386.805 73.2493 388.622 73.7493 390.822 73.7493ZM387.872 65.7993C386.238 65.7993 384.905 65.1993 383.872 63.9993C382.872 62.7993 382.372 60.9326 382.372 58.3993V57.7493C382.372 55.6159 382.888 53.9493 383.922 52.7493C384.955 51.5493 386.288 50.9493 387.922 50.9493C389.488 50.9493 390.772 51.5326 391.772 52.6993C392.772 53.8326 393.272 55.5493 393.272 57.8493V58.5493C393.272 61.0826 392.788 62.9326 391.822 64.0993C390.855 65.2326 389.538 65.7993 387.872 65.7993Z" fill="#2D2D2D"/>
<path d="M415.389 72.9993V34.4993H406.189V72.9993H415.389Z" fill="#2D2D2D"/>
<path d="M434.101 50.2993C435.801 50.2993 437.085 50.7493 437.951 51.6493C438.851 52.5493 439.401 53.8159 439.601 55.4493H428.151C428.451 53.7159 429.101 52.4326 430.101 51.5993C431.101 50.7326 432.435 50.2993 434.101 50.2993ZM448.401 63.7993H438.751C438.418 64.6326 437.868 65.2993 437.101 65.7993C436.368 66.2993 435.368 66.5493 434.101 66.5493C432.335 66.5493 430.951 66.0993 429.951 65.1993C428.985 64.2993 428.385 62.9493 428.151 61.1493H448.601V57.8993C448.601 55.2659 448.085 52.8659 447.051 50.6993C446.051 48.4993 444.485 46.7326 442.351 45.3993C441.285 44.7326 440.051 44.2326 438.651 43.8993C437.251 43.5659 435.701 43.3993 434.001 43.3993C431.001 43.3993 428.385 43.9993 426.151 45.1993C423.918 46.3993 422.185 48.1159 420.951 50.3493C420.318 51.4493 419.851 52.6659 419.551 53.9993C419.251 55.3326 419.101 56.7826 419.101 58.3493V59.1993C419.101 63.6659 420.301 67.2159 422.701 69.8493C425.101 72.4493 428.818 73.7493 433.851 73.7493C438.085 73.7493 441.368 72.8493 443.701 71.0493C446.035 69.2493 447.601 66.8326 448.401 63.7993Z" fill="#2D2D2D"/>
<path d="M461.48 57.6493C461.48 55.7159 461.797 54.1659 462.43 52.9993C463.097 51.8326 464.214 51.2493 465.78 51.2493C467.38 51.2493 468.447 51.7993 468.98 52.8993C469.514 53.9659 469.78 55.3326 469.78 56.9993V72.9993H478.88V57.1993C478.88 55.4326 479.18 53.9993 479.78 52.8993C480.38 51.7993 481.464 51.2493 483.03 51.2493C484.63 51.2493 485.714 51.7826 486.28 52.8493C486.847 53.9159 487.13 55.3326 487.13 57.0993V72.9993H496.23V54.3993C496.23 50.8993 495.414 48.1993 493.78 46.2993C492.147 44.3659 489.73 43.3993 486.53 43.3993C484.397 43.3993 482.614 43.8826 481.18 44.8493C479.747 45.7826 478.647 47.0659 477.88 48.6993C477.214 46.9993 476.164 45.6993 474.73 44.7993C473.33 43.8659 471.514 43.3993 469.28 43.3993C467.247 43.3993 465.514 43.8659 464.08 44.7993C462.647 45.7326 461.547 46.9826 460.78 48.5493L459.98 43.9993H452.33V72.9993H461.48V57.6493Z" fill="#2D2D2D"/>
<g clip-path="url(#clip0)">
<path d="M194.567 22.1108C195.967 23.7129 197.003 25.1002 198.141 24.9901C199.278 24.88 205.037 21.3258 214.32 19.8713C224.357 18.2989 236.334 20.4223 247.97 26.6758C259.606 32.9294 265.752 39.5867 268.641 45.5912C270.702 49.8752 272.303 61.5132 265.916 69.5555C259.529 77.5979 250.381 85.5738 235.713 90.6441C220.986 95.7345 208.399 98.7741 186.012 98.1978C163.626 97.6216 143.865 94.4204 134.807 90.1572C122.581 84.3983 112.716 75.3319 110.138 69.2791C106.595 60.9618 107.944 48.8232 117.008 40.2073C126.073 31.5914 143.014 20.8004 162.553 16.1362C182.092 11.4719 203.048 11.0056 214.905 11.2451C226.762 11.4846 245.717 12.6738 245.771 11.877C245.825 11.0802 221.012 7.32493 204.765 7.92032C188.518 8.51572 166.589 9.47478 145.453 18.2142C124.317 26.9536 114.045 36.3997 110.138 41.5233C105.657 47.3994 100.966 62.2926 105.752 70.9902C110.562 79.7318 119.78 87.9961 132.967 93.9349C145.77 99.6997 173.172 102.782 193.141 102.922C216.496 103.087 237.799 96.9112 250.761 89.2817C262.584 82.3209 273.211 70.8931 274.878 60.2078C276.546 49.5225 273.403 39.7734 264.681 32.2103C255.959 24.6473 247.309 19.7532 233.728 17.1374C220.146 14.5215 210.058 16.0029 205.254 17.3746C200.45 18.7462 194.567 22.1108 194.567 22.1108Z" fill="#2D2D2D"/>
</g>
<defs>
<clipPath id="clip0">
<rect width="170.828" height="96.6527" fill="white" transform="translate(107.832 0.695312) rotate(3.88081)"/>
</clipPath>
</defs>
</svg>
